<?xml version="1.0" standalone="no"?>
<!DOCTYPE svg PUBLIC "-//W3C//DTD SVG 20010904//EN"
 "http://www.w3.org/TR/2001/REC-SVG-20010904/DTD/svg10.dtd">
<svg version="1.0" xmlns="http://www.w3.org/2000/svg"
 width="500.000000pt" height="500.000000pt" viewBox="0 0 500.000000 500.000000"
 preserveAspectRatio="xMidYMid meet">
<metadata>
Created by potrace 1.14, written by Peter Selinger 2001-2017
</metadata>
<g transform="translate(0.000000,500.000000) scale(0.100000,-0.100000)"
fill="#000000" stroke="none">
<path d="M0 2500 l0 -2500 2500 0 2500 0 0 2500 0 2500 -2500 0 -2500 0 0
-2500z m2810 1976 c554 -87 1047 -407 1361 -883 381 -579 429 -1337 124 -1959
-390 -796 -1222 -1236 -2097 -1109 -504 74 -975 353 -1288 766 -513 673 -546
1603 -82 2308 135 205 360 432 557 563 291 192 578 292 950 332 77 8 381 -4
475 -18z"/>
<path d="M2267 4365 c-347 -42 -683 -185 -952 -405 -103 -84 -271 -263 -343
-365 -220 -310 -334 -643 -349 -1015 -26 -669 292 -1287 854 -1654 549 -359
1253 -401 1848 -110 445 217 796 619 954 1091 104 313 123 644 56 979 -131
647 -612 1186 -1249 1399 -254 85 -542 113 -819 80z m-328 -555 c355 -299 364
-310 397 -472 16 -78 31 -122 50 -150 36 -52 160 -168 369 -346 279 -239 648
-612 712 -719 16 -28 23 -53 21 -75 -3 -29 -7 -33 -35 -36 -17 -2 -47 5 -65
14 -97 50 -476 424 -764 754 -202 231 -293 323 -345 350 -20 10 -75 26 -122
34 -48 8 -102 22 -121 31 -47 22 -168 150 -368 389 -250 297 -217 283 140 -61
147 -142 182 -170 191 -159 10 12 -30 58 -208 248 -122 128 -221 236 -221 241
0 23 44 -14 252 -213 182 -173 234 -218 244 -209 16 13 -10 43 -274 318 -95
99 -158 172 -152 176 6 4 81 -59 168 -142 86 -81 191 -181 234 -221 70 -67
105 -84 96 -47 -2 7 -101 115 -221 239 -120 125 -215 231 -211 237 4 7 12 5
22 -4 10 -7 104 -87 211 -177z m1482 140 c26 -14 25 -71 -3 -129 -26 -57 -757
-796 -796 -806 -32 -8 -79 36 -116 106 l-25 50 65 96 c218 322 483 569 708
660 84 34 133 41 167 23z m-974 -1002 c18 -18 33 -37 33 -44 0 -14 -247 -297
-382 -436 -123 -128 -326 -319 -394 -369 -53 -41 -113 -63 -141 -52 -22 9 -11
86 19 128 52 73 203 237 364 395 171 167 441 408 459 409 5 1 24 -13 42 -31z
m881 -987 c46 -23 72 -22 72 4 0 8 7 15 16 15 11 0 14 -5 10 -16 -3 -9 -6 -58
-6 -110 0 -101 -12 -121 -31 -52 -29 109 -78 158 -159 158 -57 0 -86 -20 -101
-69 -20 -66 6 -102 136 -193 170 -119 206 -170 190 -275 -9 -62 -68 -123 -138
-142 -68 -20 -201 -10 -255 18 l-42 22 -12 -26 c-6 -14 -15 -25 -20 -25 -4 0
-8 61 -8 135 0 113 2 135 15 135 10 0 15 -10 15 -28 0 -50 30 -131 61 -167 50
-57 133 -69 195 -28 51 33 49 130 -3 185 -15 16 -67 57 -115 90 -48 33 -101
75 -117 94 -88 100 -47 248 80 290 61 20 163 13 217 -15z m-1200 -106 c-2 -66
-7 -120 -12 -120 -6 0 -17 25 -26 55 -34 112 -78 160 -147 160 l-33 0 0 -309
c0 -340 -2 -327 64 -338 84 -13 23 -23 -149 -23 -102 0 -185 4 -185 9 0 4 19
11 41 14 23 3 47 10 53 17 7 7 12 108 14 322 l3 311 -48 -6 c-64 -7 -105 -51
-133 -146 -12 -39 -26 -71 -30 -71 -7 0 -20 237 -13 243 1 1 137 2 302 2 l302
0 -3 -120z m569 101 c100 -33 149 -115 131 -216 -19 -108 -134 -180 -285 -180
l-53 0 0 -106 c0 -58 4 -114 10 -124 6 -11 26 -21 50 -25 86 -15 34 -25 -125
-25 -103 0 -165 4 -165 10 0 6 9 10 19 10 11 0 27 7 35 16 14 13 16 56 16 313
0 313 0 314 -44 322 -11 2 -21 9 -23 14 -2 6 65 10 190 9 152 -1 204 -5 244
-18z"/>
<path d="M2513 1945 c-22 -16 -23 -21 -23 -191 l0 -174 35 0 c54 0 101 24 121
62 24 45 30 180 11 233 -23 66 -99 103 -144 70z"/>
</g>
</svg>
